#!OML:ASF I:\Actors\actors\Patient Classification 2\Patient 1\Session 1\actor1.ASF
:FULLY-SPECIFIED
:DEGREES
344
root -0.747507 18.8495 5.02096 7.45315 -0.56308 -1.59794
lowerback 13.5453 0.857786 -1.0729
upperback 6.3801 1.02302 1.22012
thorax -0.928983 0.469994 1.73136
lowerneck -16.146 -3.15517 -4.53723
upperneck 22.5987 -4.17914 3.99148
head 10.043 -1.84975 1.60487
rclavicle 1.02871e-014 -1.2921e-015
rhumerus 8.00555 33.3125 -77.1592
rradius 69.4491
rwrist 10.7235
rhand -33.0508 -35.0735
rfingers 7.12502
rthumb -6.26324 295.039
lclavicle 1.02871e-014 -1.2921e-015
lhumerus 10.6891 -29.8173 86.222
lradius 66.4152
lwrist -9.69288
lhand -23.0335 -33.395
lfingers 7.12502
lthumb 3.41074 -3.44253
rfemur 0 0 0
rtibia 0
rfoot 0 0
rtoes 0
lfemur -13.3479 -6.96503 -11.3499
ltibia 21.7979
lfoot -20.9007 16.4534
ltoes -53.8326
345
root -0.740218 18.8471 5.04826 7.22828 -0.393921 -1.64257
lowerback 13.4482 0.724963 -0.919361
upperback 6.18005 0.868935 1.21084
thorax -1.07893 0.39892 1.65629
lowerneck -16.029 -3.11817 -4.49954
upperneck 22.8827 -4.1687 4.05011
head 10.1224 -1.83572 1.62348
rclavicle 7.8023e-015 -2.28602e-015
rhumerus 6.69386 34.2027 -76.0697
rradius 71.9283
rwrist 8.9591
rhand -29.2557 -33.9634
rfingers 7.12502
rthumb -2.59863 296.073
lclavicle 7.8023e-015 -2.28602e-015
lhumerus 10.0888 -31.9172 83.5804
lradius 68.6985
lwrist -6.93041
lhand -20.9284 -30.3507
lfingers 7.12502
lthumb 5.44346 -0.440664
rfemur 0 0 0
rtibia 0
rfoot 0 0
rtoes 0
lfemur -13.0554 -7.06998 -11.3417
ltibia 21.8061
lfoot -20.9119 16.3925
ltoes -53.9775
346
root -0.739337 18.8444 5.07361 7.14825 -0.616655 -1.64576
lowerback 13.1541 0.761108 -1.00907
upperback 5.97801 0.908613 1.2287
thorax -1.13591 0.41856 1.72118
lowerneck -16.0766 -3.13156 -4.55966
upperneck 23.2523 -4.18519 4.05678
head 10.2672 -1.84598 1.63528
rclavicle -6.85807e-015 -8.44835e-015
rhumerus 7.39695 36.559 -72.3774
rradius 73.64
rwrist 6.35543
rhand -26.8138 -33.9907
rfingers 7.12502
rthumb -0.240252 296.03
lclavicle -6.85807e-015 -8.44835e-015
lhumerus 9.76469 -33.8845 80.8778
lradius 70.9224
lwrist -4.40957
lhand -18.4048 -27.3094
lfingers 7.12502
lthumb 7.87963 2.52374
rfemur 0 0 0
rtibia 0
rfoot 0 0
rtoes 0
lfemur -12.8163 -6.96965 -11.3944
ltibia 21.8119
lfoot -21.0492 16.4178
ltoes -53.9013
347
root -0.736722 18.841 5.09959 7.11605 -0.893157 -1.58738
lowerback 12.7624 0.828559 -1.17366
upperback 5.769 0.981943 1.23936
thorax -1.14943 0.45383 1.81731
lowerneck -16.1179 -3.12535 -4.52212
upperneck 23.6206 -4.1743 3.96154
head 10.405 -1.84717 1.59832
rclavicle -4.42296e-015 -3.97569e-016
rhumerus 7.90547 38.2837 -69.1101
rradius 75.1091
rwrist 5.65321
rhand -25.1323 -33.4912
rfingers 7.12502
rthumb 1.38376 296.534
lclavicle -4.42296e-015 -3.97569e-016
lhumerus 9.57806 -35.7313 78.1327
lradius 73.0526
lwrist -2.04445
lhand -15.604 -24.3462
lfingers 7.12502
lthumb 10.5822 5.36737
rfemur 0 0 0
rtibia 0
rfoot 0 0
rtoes 0
lfemur -12.6167 -6.72037 -11.525
ltibia 21.8205
lfoot -21.162 16.2891
ltoes -53.7319
348
root -0.731123 18.8373 5.12688 7.01337 -0.931794 -1.596
lowerback 12.4532 0.82863 -1.12897
upperback 5.54491 0.990819 1.24426
thorax -1.21696 0.461231 1.79744
lowerneck -16.0298 -3.15789 -4.46202
upperneck 23.9698 -4.23702 3.89925
head 10.5155 -1.87776 1.56015
rclavicle -1.3418e-015 3.27995e-015
rhumerus 8.19569 39.6258 -66.055
rradius 76.3864
rwrist 6.23527
rhand -23.6335 -32.4354
rfingers 7.12502
rthumb 2.83135 297.604
lclavicle -1.3418e-015 3.27995e-015
lhumerus 9.50495 -37.5972 75.3326
lradius 74.9694
lwrist 0.398127
lhand -12.7948 -21.9778
lfingers 7.12502
lthumb 13.291 7.57836
rfemur 0 0 0
rtibia 0
rfoot 0 0
rtoes 0
lfemur -12.3918 -6.62698 -11.5677
ltibia 21.8192
lfoot -21.2707 16.1331
ltoes -53.6844
349
root -0.726617 18.833 5.15245 6.87468 -0.930067 -1.67884
lowerback 12.1885 0.811257 -1.01418
upperback 5.33912 0.984675 1.28379
thorax -1.2877 0.461531 1.77577
lowerneck -15.9793 -3.22179 -4.54822
upperneck 24.372 -4.34127 3.97523
head 10.6624 -1.92342 1.59011
rclavicle -2.93207e-015 -1.98785e-016
rhumerus 8.66861 40.9028 -62.8178
rradius 77.5339
rwrist 7.37022
rhand -21.9256 -30.8899
rfingers 7.12502
rthumb 4.48057 299.177
lclavicle -2.93207e-015 -1.98785e-016
lhumerus 9.58065 -39.3253 72.5279
lradius 76.6702
lwrist 2.82128
lhand -10.302 -20.3815
lfingers 7.12502
lthumb 15.6928 9.00215
rfemur 0 0 0
rtibia 0
rfoot 0 0
rtoes 0
lfemur -12.1198 -6.67399 -11.5235
ltibia 21.7833
lfoot -21.4215 16.1618
ltoes -53.7626
350
root -0.721886 18.8288 5.17471 6.70167 -1.02254 -1.69307
lowerback 12.0131 0.813944 -1.0228
upperback 5.14886 0.990711 1.33525
thorax -1.39247 0.466074 1.83374
lowerneck -16.0306 -3.23895 -4.65918
upperneck 24.8328 -4.37356 4.05826
head 10.8493 -1.93631 1.63653
rclavicle 7.45443e-016 4.96962e-015
rhumerus 9.44048 42.1524 -59.4354
rradius 78.6434
rwrist 8.21425
rhand -19.8807 -29.1334
rfingers 7.12502
rthumb 6.45499 300.985
lclavicle 7.45443e-016 4.96962e-015
lhumerus 9.78267 -40.7895 69.799
lradius 78.1369
lwrist 4.9869
lhand -8.22072 -19.159
lfingers 7.12502
lthumb 17.6965 10.0557
rfemur 0 0 0
rtibia 0
rfoot 0 0
rtoes 0
lfemur -11.7954 -6.71871 -11.5699
ltibia 21.7346
lfoot -21.5772 16.2382
ltoes -53.7449
351
root -0.735117 18.8247 5.20204 6.49375 -1.39167 -1.68581
lowerback 11.9981 1.01167 -1.20483
upperback 4.86569 1.23249 1.32151
thorax -1.69227 0.588678 1.88811
lowerneck -16.0984 -3.30588 -4.61557
upperneck 25.4365 -4.50933 4.08567
head 11.0947 -1.98703 1.62288
rclavicle -1.30204e-014 -1.22253e-014
rhumerus 9.76005 43.1525 -56.5186
rradius 79.7329
rwrist 8.58005
rhand -18.3309 -27.5875
rfingers 7.12502
rthumb 7.95099 302.582
lclavicle -1.30204e-014 -1.22253e-014
lhumerus 10.0046 -42.3644 67.1817
lradius 79.4613
lwrist 6.93618
lhand -6.17577 -18.0787
lfingers 7.12502
lthumb 19.6634 10.9468
rfemur 0 0 0
rtibia 0
rfoot 0 0
rtoes 0
lfemur -11.3276 -6.40078 -11.6221
ltibia 21.6773
lfoot -21.7399 16.1212
ltoes -53.6193
352
root -0.738064 18.8177 5.22397 6.16962 -1.6378 -1.68856
lowerback 11.8511 1.106 -1.49986
upperback 4.77424 1.32973 1.45353
thorax -1.72091 0.634237 2.18018
lowerneck -16.1535 -3.29604 -4.51563
upperneck 25.8805 -4.48214 3.88192
head 11.2637 -1.98766 1.53782
rclavicle -8.44835e-016 5.96354e-015
rhumerus 10.6261 44.3029 -53.2499
rradius 80.5693
rwrist 8.911
rhand -18.1064 -26.7372
rfingers 7.12502
rthumb 8.16767 303.441
lclavicle -8.44835e-016 5.96354e-015
lhumerus 10.3012 -43.3524 64.9199
lradius 80.6467
lwrist 8.7887
lhand -3.8659 -17.0247
lfingers 7.12502
lthumb 21.8827 11.7578
rfemur 0 0 0
rtibia 0
rfoot 0 0
rtoes 0
lfemur -10.7917 -6.22478 -11.6971
ltibia 21.6208
lfoot -21.8712 16.0617
ltoes -53.5766
353
root -0.732315 18.8103 5.24086 5.87156 -1.74676 -1.69326
lowerback 11.8536 1.11515 -1.46853
upperback 4.6078 1.34693 1.48133
thorax -1.89653 0.646048 2.18751
lowerneck -16.0831 -3.28111 -4.39801
upperneck 26.2771 -4.46817 3.72335
head 11.3925 -1.98897 1.46506
rclavicle -9.0447e-015 -5.96354e-015
rhumerus 11.5392 45.4091 -50.252
rradius 81.089
rwrist 9.6322
rhand -18.8605 -26.6044
rfingers 7.12502
rthumb 7.43982 303.546
lclavicle -9.0447e-015 -5.96354e-015
lhumerus 10.4815 -44.2376 62.8772
lradius 81.7514
lwrist 10.4248
lhand -1.34722 -15.8489
lfingers 7.12502
lthumb 24.2994 12.631
rfemur 0 0 0
rtibia 0
rfoot 0 0
rtoes 0
lfemur -10.3479 -6.24498 -11.7794
ltibia 21.5792
lfoot -22.027 16.1081
ltoes -53.5967
354
root -0.723596 18.8069 5.25825 5.85457 -1.69794 -1.7055
lowerback 11.5391 1.04193 -1.29221
upperback 4.37169 1.27354 1.45655
thorax -1.96397 0.613938 2.07414
lowerneck -15.9814 -3.26712 -4.28981
upperneck 26.6822 -4.47221 3.62795
head 11.5219 -1.99185 1.41456
rclavicle 1.94312e-014 8.54774e-015
rhumerus 12.5282 46.3835 -47.4655
rradius 81.3469
rwrist 10.9041
rhand -19.7913 -26.4519
rfingers 7.12502
rthumb 6.54133 303.669
lclavicle 1.94312e-014 8.54774e-015
lhumerus 10.5002 -44.9629 61.1184
lradius 82.7223
lwrist 11.1591
lhand 0.997377 -14.9581
lfingers 7.12502
lthumb 26.5453 13.2019
rfemur 0 0 0
rtibia 0
rfoot 0 0
rtoes 0
lfemur -10.2709 -6.38374 -11.8055
ltibia 21.5691
lfoot -22.155 16.1756
ltoes -53.6227
